# xmcd
#
# Track frame offsets: 
#        150
#        7150
#        18694
#        25896
#        34789
#        50786
#        65129
#        80205
#        95405
#        109478
#        129476
#
# Disc length: 1906 seconds
#
# Revision: 1
# Processed by: cddbd v1.5.2PL0 Copyright (c) Steve Scherf et al.
# Submitted via: ExactAudioCopy v1.0b3
#
DISCID=a107700b
DTITLE=Rezije and Nexhat Osmani - Kafe Muhabet
DYEAR=2012
DGENRE=Folk
TTITLE0=A E Din Moter
TTITLE1=Kaj Shehide
TTITLE2=Rreth Pazarit
TTITLE3=Ferdez
TTITLE4=Hajt Hopa Hopa
TTITLE5=O Sheqer I Embel
TTITLE6=Oj Dashni E Vjeter
TTITLE7=Kafe Muhabet
TTITLE8=Rrotull Rrotull Kjo Dynja
TTITLE9=Sot Po Behesh Nuse
TTITLE10=Dil Moj Cuc E Bukur
EXTD=
EXTT0=
EXTT1=
EXTT2=
EXTT3=
EXTT4=
EXTT5=
EXTT6=
EXTT7=
EXTT8=
EXTT9=
EXTT10=
PLAYORDER=
